<svg xmlns="http://www.w3.org/2000/svg" viewBox="0 0 320 320" role="img" aria-labelledby="title desc">
  <title id="title">Dog City Brasil</title>
  <desc id="desc">Marca principal da Dog City Brasil.</desc>
  <defs>
    <linearGradient id="dogcitySpectrum" x1="0%" y1="0%" x2="100%" y2="100%">
      <stop offset="0%" stop-color="#6d28d9" />
      <stop offset="22%" stop-color="#db2777" />
      <stop offset="42%" stop-color="#f97316" />
      <stop offset="62%" stop-color="#facc15" />
      <stop offset="80%" stop-color="#22c55e" />
      <stop offset="100%" stop-color="#0ea5e9" />
    </linearGradient>
    <filter id="shadow" x="-20%" y="-20%" width="140%" height="140%">
      <feDropShadow dx="0" dy="8" stdDeviation="10" flood-color="#0f172a" flood-opacity="0.15" />
    </filter>
  </defs>
  <rect width="320" height="320" fill="#ffffff" />
  <g filter="url(#shadow)">
    <circle cx="160" cy="100" r="74" fill="url(#dogcitySpectrum)" />
  </g>
  <g fill="#ffffff">
    <path d="M171 53c21 6 36 21 41 41 6 22-1 46-18 62-10 10-24 16-38 16-7 0-14-1-21-4 7-5 14-12 18-21 5-11 5-24-1-35-7-14-20-22-36-25 9-17 31-27 55-22Z" />
    <path d="M141 64c-20 3-37 18-45 39-9 23-5 49 10 68 9 12 23 20 38 23-6-7-10-15-11-25-1-12 3-24 12-32 10-10 25-14 42-12-3-19-22-34-46-39Z" opacity=".96" />
    <path d="M159 98c-11 8-18 20-18 34 0 20 15 38 36 43-3 4-6 8-9 12-6 8-16 12-26 12-22 0-40-18-40-40 0-23 19-42 42-42 5 0 10 1 15 3Z" opacity=".94" />
  </g>
  <g fill="#1e293b">
    <text x="160" y="228" text-anchor="middle" font-family="Trebuchet MS, Arial, sans-serif" font-size="42" font-weight="700" letter-spacing="2">DOG CITY</text>
    <path d="M98 245h124v5H98z" fill="#334155" opacity=".85" />
    <text x="160" y="276" text-anchor="middle" font-family="Trebuchet MS, Arial, sans-serif" font-size="24" letter-spacing="6" font-weight="700">BRASIL</text>
  </g>
</svg>
