<svg xmlns="http://www.w3.org/2000/svg" viewBox="0 0 360 360" role="img" aria-labelledby="title desc">
  <title id="title">Dog City Brasil</title>
  <desc id="desc">Logo oficial padrão da Dog City Brasil.</desc>
  <defs>
    <radialGradient id="warm" cx="66%" cy="28%" r="82%">
      <stop offset="0" stop-color="#ffe45c" />
      <stop offset=".32" stop-color="#ff7a1a" />
      <stop offset=".58" stop-color="#df2f85" />
      <stop offset="1" stop-color="#6638b6" />
    </radialGradient>
    <radialGradient id="cool" cx="82%" cy="64%" r="72%">
      <stop offset="0" stop-color="#2fd7a9" />
      <stop offset=".5" stop-color="#0798d8" />
      <stop offset="1" stop-color="#31408f" stop-opacity="0" />
    </radialGradient>
    <filter id="softShadow" x="-25%" y="-25%" width="150%" height="150%">
      <feDropShadow dx="0" dy="7" stdDeviation="9" flood-color="#1f2d44" flood-opacity=".16" />
    </filter>
  </defs>

  <rect width="360" height="360" fill="#fff" />

  <g filter="url(#softShadow)">
    <circle cx="180" cy="88" r="73" fill="url(#warm)" />
    <circle cx="199" cy="101" r="62" fill="url(#cool)" opacity=".9" />
    <path d="M122 54c28-35 88-41 124-8-36-10-88-2-124 8Z" fill="#ff3a54" opacity=".62" />
    <path d="M119 116c22 37 84 57 123 25-36 12-86 2-123-25Z" fill="#08a7c8" opacity=".45" />
  </g>

  <g fill="#fff">
    <path d="M191 36c19 8 34 24 39 45 7 29-7 62-35 78-15 9-35 12-55 5 16-10 27-23 31-39 5-20-5-40-27-55 11-24 29-35 47-34Z" />
    <path d="M155 53c-26 9-45 35-45 65 0 31 21 57 50 64-7-11-9-24-5-37 5-18 20-33 43-41-9-25-25-42-43-51Z" opacity=".97" />
    <path d="M169 104c-10 12-14 27-10 42 5 20 23 35 46 38-10 12-25 20-43 20-30 0-55-25-55-55 0-31 25-56 56-56 2 0 4 0 6 1Z" opacity=".94" />
  </g>

  <g fill="#273a5a" text-anchor="middle">
    <text x="180" y="235" font-family="'Segoe Print','Comic Sans MS','Trebuchet MS',cursive" font-size="58" font-weight="700" letter-spacing="-4">Dog City</text>
    <g transform="translate(180 271)">
      <path d="M-63 0h126" stroke="#273a5a" stroke-width="5" stroke-linecap="round" opacity=".9" />
      <text y="35" font-family="Trebuchet MS, Arial, sans-serif" font-size="28" font-weight="800" letter-spacing="5">BRASIL</text>
    </g>
  </g>
</svg>
