<svg xmlns="http://www.w3.org/2000/svg" viewBox="0 0 256 256" role="img" aria-label="Dog City Brasil">
  <defs>
    <radialGradient id="warm" cx="66%" cy="28%" r="82%">
      <stop offset="0" stop-color="#ffe45c" />
      <stop offset=".32" stop-color="#ff7a1a" />
      <stop offset=".58" stop-color="#df2f85" />
      <stop offset="1" stop-color="#6638b6" />
    </radialGradient>
    <radialGradient id="cool" cx="82%" cy="64%" r="72%">
      <stop offset="0" stop-color="#2fd7a9" />
      <stop offset=".5" stop-color="#0798d8" />
      <stop offset="1" stop-color="#31408f" stop-opacity="0" />
    </radialGradient>
  </defs>
  <rect width="256" height="256" rx="56" fill="#fff" />
  <circle cx="128" cy="108" r="82" fill="url(#warm)" />
  <circle cx="149" cy="124" r="66" fill="url(#cool)" opacity=".9" />
  <g fill="#fff">
    <path d="M141 45c22 9 38 28 44 52 8 33-8 70-39 88-17 10-40 13-62 6 18-12 31-27 35-46 6-23-6-45-30-62 12-26 33-40 52-38Z" />
    <path d="M101 64c-30 10-52 40-52 75 0 36 24 66 58 74-8-13-10-28-6-43 6-21 24-38 50-47-11-29-29-49-50-59Z" opacity=".97" />
    <path d="M117 123c-11 14-16 31-11 49 6 23 27 40 53 44-12 14-29 23-50 23-35 0-63-28-63-63 0-36 28-64 64-64 2 0 5 0 7 1Z" opacity=".94" />
  </g>
</svg>
